<svg width="594" height="565" viewBox="0 0 594 565" fill="none" xmlns="http://www.w3.org/2000/svg">
<path d="M279.327 325.135L300.49 338.431L299.822 365.863L277.432 355.564L279.327 325.135Z" stroke="black" stroke-width="3.02362"/>
<path d="M368.574 436.769L369.3 419.792L394.181 396.168L412.836 388.986" stroke="#FFA844" stroke-width="3.37638"/>
<path d="M357.423 346.203L358.59 327.596" stroke="#FFA844" stroke-width="3.37638"/>
<path d="M363.339 341.93L367.453 330.049" stroke="#FFA844" stroke-width="3.37638"/>
<path d="M376.388 345.34L374.406 327.23" stroke="#FFA844" stroke-width="3.37638"/>
<path d="M370.411 341.554L365.854 330.211" stroke="#FFA844" stroke-width="3.37638"/>
<path d="M368.161 421.646L352.137 380.083L332.983 363.225L320.885 358.97" stroke="#FFA844" stroke-width="3.37638"/>
<path d="M320.362 366.214L332.983 363.225L323.664 351.701" stroke="#FFA844" stroke-width="3.37638"/>
<path d="M380.236 369.828L368.161 421.646L362.599 373.091L357.042 360.945L342.261 356.014" stroke="#FFA844" stroke-width="3.37638"/>
<path d="M362.599 373.091L357.423 346.203L350.917 333.527" stroke="#FFA844" stroke-width="3.37638"/>
<path d="M368.161 421.646L373.464 373.267L369.805 354.354L363.339 341.93" stroke="#FFA844" stroke-width="3.37638"/>
<path d="M357.042 360.945L341.006 338.136" stroke="#FFA844" stroke-width="3.37638"/>
<path d="M373.586 399.139L383.203 395.806" stroke="#FFA844" stroke-width="3.37638"/>
<path d="M376.652 385.9L390.918 376.616" stroke="#FFA844" stroke-width="3.37638"/>
<path d="M388.938 357.131L380.236 369.828L376.667 355.77L383.241 340.332" stroke="#FFA844" stroke-width="3.37638"/>
<path d="M376.667 355.77L373.162 338.666" stroke="#FFA844" stroke-width="3.37638"/>
<path d="M341.673 399.265L327.063 413.804" stroke="#FFA844" stroke-width="3.37638"/>
<path d="M342.972 371.94L335.713 377.367" stroke="#FFA844" stroke-width="3.37638"/>
<path d="M333.4 343.463L342.261 356.014L331.071 352.809" stroke="#FFA844" stroke-width="3.37638"/>
<path d="M362.599 373.091L364.514 351.482" stroke="#FFA844" stroke-width="3.37638"/>
<path d="M352.137 380.083L349.091 365.235" stroke="#FFA844" stroke-width="3.37638"/>
<path d="M384.64 364.296H390.929" stroke="#FFA844" stroke-width="3.37638"/>
<path d="M380.559 347.618L389.097 345.182" stroke="#FFA844" stroke-width="3.37638"/>
<path d="M363.339 341.93L361.267 333.478" stroke="#FFA844" stroke-width="3.37638" stroke-linecap="square"/>
<path d="M352.589 408.351L343.884 385.586" stroke="#FFA844" stroke-width="3.37638"/>
<path d="M333.264 396.281L323.218 378.891" stroke="#FFA844" stroke-width="3.37638"/>
<path d="M368.161 421.646L389.387 397.769L392.456 384.646" stroke="#FFA844" stroke-width="3.37638"/>
<path d="M389.387 397.769L394.115 392.78" stroke="#FFA844" stroke-width="3.37638"/>
<path d="M388.592 357.892L398.466 356.37" stroke="#FFA844" stroke-width="3.37638"/>
<path d="M388.938 357.131L394.323 336.884" stroke="#FFA844" stroke-width="3.37638"/>
<path d="M394.521 369.371L390.918 376.616L396.153 376.209" stroke="#FFA844" stroke-width="3.37638"/>
<path d="M378.035 412.023L390.307 410.87" stroke="#FFA844" stroke-width="3.37638"/>
<path d="M394.115 392.78L404.273 389.571" stroke="#FFA844" stroke-width="3.37638"/>
<path d="M394.115 392.78L399.284 386.752" stroke="#FFA844" stroke-width="3.37638"/>
<path d="M385.295 403.057L398.194 398.667" stroke="#FFA844" stroke-width="3.37638"/>
<path d="M364.905 392.563L357.794 383.026" stroke="#FFA844" stroke-width="3.37638"/>
<path d="M363.896 382.034L369.242 372.995" stroke="#FFA844" stroke-width="3.37638"/>
<path d="M320.477 386.925L328.021 387.789" stroke="#FFA844" stroke-width="3.37638"/>
<path d="M328.743 405.435L337.014 403.571" stroke="#FFA844" stroke-width="3.37638"/>
<path d="M333.539 415.559L333.311 408.362" stroke="#FFA844" stroke-width="3.37638"/>
<path d="M369.805 354.354L370.329 346.726" stroke="#FFA844" stroke-width="3.37638"/>
<path d="M363.219 362.509L365.842 359.722" stroke="#FFA844" stroke-width="3.37638"/>
<path d="M371.991 365.011L375.611 362.53" stroke="#FFA844" stroke-width="3.37638"/>
<path d="M375.182 348.831L377.451 334.119" stroke="#FFA844" stroke-width="3.37638"/>
<path d="M337.281 397.281L335.215 384.792" stroke="#FFA844" stroke-width="3.37638"/>
<path d="M349.363 344.689L349.381 350.152" stroke="#FFA844" stroke-width="3.37638"/>
<path d="M391.791 348.036L396.911 344.191" stroke="#FFA844" stroke-width="3.37638"/>
<path d="M396.653 358.141L394.521 369.371L399.754 366.879" stroke="#FFA844" stroke-width="3.37638"/>
<path d="M399.284 386.752L401.352 378.841" stroke="#FFA844" stroke-width="3.37638"/>
<path d="M399.284 386.752L402.82 384.983" stroke="#FFA844" stroke-width="3.37638"/>
<path d="M388.651 406.28L385.486 410.265" stroke="#FFA844" stroke-width="3.37638"/>
<path d="M328.112 351.768L328.145 357.229" stroke="#FFA844" stroke-width="3.37638"/>
<path d="M332.95 357.765L332.983 363.225" stroke="#FFA844" stroke-width="3.37638"/>
<path d="M369.301 419.792L383.086 378.108L401.046 360.366L409.348 356.725" stroke="#FFA844" stroke-width="3.37638"/>
<path d="M409.73 361.823L401.046 360.366L406.256 352.796" stroke="#FFA844" stroke-width="3.37638"/>
<path d="M355.156 369.938L369.3 419.792L372.544 371.964L377.426 359.725L391.651 353.93" stroke="#FFA844" stroke-width="3.37638"/>
<path d="M372.544 371.964L376.388 345.34L382.174 332.52" stroke="#FFA844" stroke-width="3.37638"/>
<path d="M369.301 419.792L361.931 372.853L364.653 354.124L370.412 341.554" stroke="#FFA844" stroke-width="3.37638"/>
<path d="M377.426 359.725L392.07 336.371" stroke="#FFA844" stroke-width="3.37638"/>
<path d="M362.982 398.151L353.43 395.527" stroke="#FFA844" stroke-width="3.37638"/>
<path d="M359.385 385.411L345.022 377.278" stroke="#FFA844" stroke-width="3.37638"/>
<path d="M346.076 358.101L355.156 369.938L358.009 355.961L350.141 339.916" stroke="#FFA844" stroke-width="3.37638"/>
<path d="M358.009 355.961L362.634 335.704" stroke="#FFA844" stroke-width="3.37638"/>
<path d="M394.192 396.156L404.398 397.227" stroke="#FFA844" stroke-width="3.37638"/>
<path d="M391.676 369.544L399.017 374.37" stroke="#FFA844" stroke-width="3.37638"/>
<path d="M399.746 341.077L391.651 353.93L402.445 350.059" stroke="#FFA844" stroke-width="3.37638"/>
<path d="M372.544 371.964L369.695 350.968" stroke="#FFA844" stroke-width="3.37638"/>
<path d="M383.086 378.108L385.392 363.394" stroke="#FFA844" stroke-width="3.37638"/>
<path d="M350.602 364.822L344.454 365.236" stroke="#FFA844" stroke-width="3.37638"/>
<path d="M352.889 345.384L347.933 342.205" stroke="#FFA844" stroke-width="3.37638"/>
<path d="M370.411 341.554L372.055 333.155" stroke="#FFA844" stroke-width="3.37638" stroke-linecap="square"/>
<path d="M383.921 405.769L391.402 382.943" stroke="#FFA844" stroke-width="3.37638"/>
<path d="M402.266 392.696L411.3 375.034" stroke="#FFA844" stroke-width="3.37638"/>
<path d="M369.3 419.792L347.474 397.853L343.881 385.229" stroke="#FFA844" stroke-width="3.37638"/>
<path d="M347.474 397.853L342.627 393.288" stroke="#FFA844" stroke-width="3.37638"/>
<path d="M346.076 358.101L339.898 338.666" stroke="#FFA844" stroke-width="3.37638" stroke-linecap="square"/>
<path d="M341.173 370.434L345.022 377.278L339.886 377.226" stroke="#FFA844" stroke-width="3.37638"/>
<path d="M378.538 411.03L396.283 409.556" stroke="#FFA844" stroke-width="3.37638"/>
<path d="M342.627 393.288L332.553 390.822" stroke="#FFA844" stroke-width="3.37638"/>
<path d="M342.627 393.289L337.302 387.738" stroke="#FFA844" stroke-width="3.37638"/>
<path d="M351.713 402.752L341.358 399.816" stroke="#FFA844" stroke-width="3.37638"/>
<path d="M371.169 391.149L377.689 381.358" stroke="#FFA844" stroke-width="3.37638"/>
<path d="M371.68 380.791L366.046 372.309" stroke="#FFA844" stroke-width="3.37638"/>
<path d="M414.342 382.707L407.006 384.049" stroke="#FFA844" stroke-width="3.37638"/>
<path d="M364.653 354.124L363.796 346.703" stroke="#FFA844" stroke-width="3.37638"/>
<path d="M369.553 361.724L366.863 359.173" stroke="#FFA844" stroke-width="3.37638"/>
<path d="M362.997 364.686L359.347 362.499" stroke="#FFA844" stroke-width="3.37638"/>
<path d="M359.148 349.081L356.264 334.849" stroke="#FFA844" stroke-width="3.37638"/>
<path d="M398.384 393.939L399.839 381.595" stroke="#FFA844" stroke-width="3.37638"/>
<path d="M385.038 341.042L385.266 346.383" stroke="#FFA844" stroke-width="3.37638"/>
<path d="M386.117 350.476L386.346 355.817" stroke="#FFA844" stroke-width="3.37638"/>
<path d="M342.877 349.399L337.698 345.978" stroke="#FFA844" stroke-width="3.37638"/>
<path d="M338.581 359.598L341.173 370.434L335.945 368.343" stroke="#FFA844" stroke-width="3.37638"/>
<path d="M337.302 387.738L334.923 380.141" stroke="#FFA844" stroke-width="3.37638"/>
<path d="M337.302 387.738L333.766 386.242" stroke="#FFA844" stroke-width="3.37638"/>
<path d="M389.912 410.766L393.186 414.452" stroke="#FFA844" stroke-width="3.37638"/>
<path d="M369.3 419.792L368.574 436.769" stroke="#FFA844" stroke-width="3.37638"/>
<path d="M413.472 378.163L391.38 380.107" stroke="#FFA844" stroke-width="3.37638"/>
<path d="M367 407.621L399.862 392.214" stroke="#FFA844" stroke-width="3.37638"/>
<path d="M409.165 365.665L366.303 399.887L381.954 362.943" stroke="#FFA844" stroke-width="3.37638"/>
<path d="M366.303 399.887L371.091 345.094" stroke="#FFA844" stroke-width="3.37638"/>
<path d="M366.303 399.887L350.775 358.576" stroke="#FFA844" stroke-width="3.37638"/>
<path d="M367.61 415.454L329.84 397.326" stroke="#FFA844" stroke-width="3.37638"/>
<path d="M338.976 401.758L334.232 384.481" stroke="#FFA844" stroke-width="3.37638"/>
<path d="M399.724 372.816L403.886 363.997" stroke="#FFA844" stroke-width="3.37638"/>
<path d="M368.067 375.159L354.402 348.308" stroke="#FFA844" stroke-width="3.37638"/>
<path d="M342.975 373.114L336.389 390.067" stroke="#FFA844" stroke-width="3.37638"/>
<path d="M353.594 408.816L339.055 409.291" stroke="#FFA844" stroke-width="3.37638"/>
<path d="M336.816 395.357L326.851 385.198" stroke="#FFA844" stroke-width="3.37638"/>
<path d="M356.872 393.584L346.537 399.322" stroke="#FFA844" stroke-width="3.37638"/>
<path d="M359.046 380.584L338.522 362.375" stroke="#FFA844" stroke-width="3.37638"/>
<path d="M406.293 402.676L384.343 399.438" stroke="#FFA844" stroke-width="3.37638"/>
<path d="M396.38 385.808L389.299 396.341" stroke="#FFA844" stroke-width="3.37638"/>
<path d="M386.766 369.615L375.472 377.298" stroke="#FFA844" stroke-width="3.37638"/>
<path d="M407.382 391.603L399.862 392.214L405.286 383.124" stroke="#FFA844" stroke-width="3.37638"/>
<path d="M388.607 361.057L384.089 371.393" stroke="#FFA844" stroke-width="3.37638"/>
<path d="M378.394 350.307L370.579 357.768" stroke="#FFA844" stroke-width="3.37638"/>
<path d="M358.792 346.269L358.501 355.257" stroke="#FFA844" stroke-width="3.37638"/>
<path d="M363.687 367.009L350.467 351.307" stroke="#FFA844" stroke-width="3.37638"/>
<path d="M361.379 368.814L359.466 381.079" stroke="#FFA844" stroke-width="3.37638"/>
<path d="M353.051 365.168L341.41 358.853" stroke="#FFA844" stroke-width="3.37638"/>
<path d="M348.984 356.915L348.573 361.31" stroke="#FFA844" stroke-width="3.37638"/>
<path d="M344.279 367.076L332.673 368.108" stroke="#FFA844" stroke-width="3.37638"/>
<path d="M347.179 365.257L349.975 372.216" stroke="#FFA844" stroke-width="3.37638"/>
<path d="M339.43 372.497L340.423 379.583" stroke="#FFA844" stroke-width="3.37638"/>
<path d="M334.232 384.481L334.848 372.22" stroke="#FFA844" stroke-width="3.37638"/>
<path d="M334.682 378.655L328.265 375.467" stroke="#FFA844" stroke-width="3.37638"/>
<path d="M329.387 387.774L328.894 380.047" stroke="#FFA844" stroke-width="3.37638"/>
<path d="M352.144 395.498L340.746 392.71" stroke="#FFA844" stroke-width="3.37638"/>
<path d="M352.129 387.808L352.475 379.747" stroke="#FFA844" stroke-width="3.37638"/>
<path d="M348.193 385.498L346.189 378.411" stroke="#FFA844" stroke-width="3.37638"/>
<path d="M348.193 385.498L342.638 387.868" stroke="#FFA844" stroke-width="3.37638"/>
<path d="M356.827 401.397L361.456 411.916" stroke="#FFA844" stroke-width="3.37638"/>
<path d="M333.518 399.545L329.239 400.539" stroke="#FFA844" stroke-width="3.37638"/>
<path d="M333.479 392.144L326.955 392.789" stroke="#FFA844" stroke-width="3.37638"/>
<path d="M372.304 376.328L371.974 385.539" stroke="#FFA844" stroke-width="3.37638"/>
<path d="M374.809 368.541L367.981 379.207" stroke="#FFA844" stroke-width="3.37638"/>
<path d="M392.461 365.795L385.737 384.203" stroke="#FFA844" stroke-width="3.37638"/>
<path d="M385.595 390.64L376.382 402.283" stroke="#FFA844" stroke-width="3.37638"/>
<path d="M342.027 408.911L337.429 404.693" stroke="#FFA844" stroke-width="3.37638"/>
<path d="M396.376 401.323L398.968 404.87" stroke="#FFA844" stroke-width="3.37638"/>
<path d="M405.624 399.384L403.129 402.58" stroke="#FFA844" stroke-width="3.37638"/>
<path d="M389.224 388.62L391.774 391.837" stroke="#FFA844" stroke-width="3.37638"/>
<path d="M407.049 375.087L402.588 379.283" stroke="#FFA844" stroke-width="3.37638"/>
<path d="M385.957 387.93L380.305 387.012" stroke="#FFA844" stroke-width="3.37638"/>
<path d="M367.739 343.721L369.952 353.804" stroke="#FFA844" stroke-width="3.37638"/>
<path d="M378.945 380.044L374.332 381.248" stroke="#FFA844" stroke-width="3.37638"/>
<path d="M334.739 348.92L334.968 354.261" stroke="#FFA844" stroke-width="3.37638"/>
<path d="M345.043 338.455L345.272 343.797" stroke="#FFA844" stroke-width="3.37638"/>
<path d="M369.703 438.91L368.162 421.646L341.673 399.265L322.309 393.225" stroke="#FFA844" stroke-width="3.37638"/>
<path d="M368.161 421.646L369.703 438.91" stroke="#FFA844" stroke-width="3.37638"/>
<path d="M369.17 438.16L366.303 399.887L348.193 385.498" stroke="#FFA844" stroke-width="3.37638"/>
<path d="M403.081 370.486L408.27 370.613" stroke="#FFA844" stroke-width="3.37638"/>
<path d="M368.417 388.617L348.234 390.258" stroke="#FFA844" stroke-width="2.74237"/>
<path d="M365.529 376.933L326.37 405.815L340.669 374.635" stroke="#FFA844" stroke-width="2.74237"/>
<path d="M360.978 409.305L340.924 406.573" stroke="#FFA844" stroke-width="2.74237"/>
<path d="M361.972 399.96L355.102 400.476L360.057 392.804" stroke="#FFA844" stroke-width="2.74237"/>
<path d="M360.366 405.567L358.087 408.265" stroke="#FFA844" stroke-width="2.74237"/>
<path d="M365.191 385.062L361.116 388.603" stroke="#FFA844" stroke-width="2.74237"/>
<path d="M326.042 413.479L356.066 400.476" stroke="#FFA844" stroke-width="2.74237"/>
<path d="M328.024 439.253L325.406 406.952L308.86 394.808" stroke="#FFA844" stroke-width="2.74237"/>
<path d="M325.406 406.952L329.78 360.708" stroke="#FFA844" stroke-width="2.74237"/>
<path d="M325.406 406.952L311.219 372.087" stroke="#FFA844" stroke-width="2.74237"/>
<path d="M326.599 420.09L292.092 404.79" stroke="#FFA844" stroke-width="2.74237"/>
<path d="M300.439 408.531L296.105 393.949" stroke="#FFA844" stroke-width="2.74237"/>
<path d="M355.059 384.105L357.716 371.098" stroke="#FFA844" stroke-width="2.74237"/>
<path d="M327.017 386.082L314.532 363.421" stroke="#FFA844" stroke-width="2.74237"/>
<path d="M304.093 384.356L298.075 398.664" stroke="#FFA844" stroke-width="2.74237"/>
<path d="M313.794 414.488L300.51 414.889" stroke="#FFA844" stroke-width="2.74237"/>
<path d="M298.465 403.129L289.361 394.554" stroke="#FFA844" stroke-width="2.74237"/>
<path d="M315.825 402.769L306.383 407.612" stroke="#FFA844" stroke-width="2.74237"/>
<path d="M318.775 390.66L300.023 375.293" stroke="#FFA844" stroke-width="2.74237"/>
<path d="M352.885 395.07L346.415 403.959" stroke="#FFA844" stroke-width="2.74237"/>
<path d="M344.981 381.403L334.663 387.887" stroke="#FFA844" stroke-width="2.74237"/>
<path d="M345.783 374.181L341.655 382.904" stroke="#FFA844" stroke-width="2.74237"/>
<path d="M336.452 365.108L329.312 371.405" stroke="#FFA844" stroke-width="2.74237"/>
<path d="M318.543 361.701L318.277 369.286" stroke="#FFA844" stroke-width="2.74237"/>
<path d="M323.016 379.204L310.937 365.952" stroke="#FFA844" stroke-width="2.74237"/>
<path d="M322.668 385.526L320.921 395.877" stroke="#FFA844" stroke-width="2.74237"/>
<path d="M313.298 377.65L306.114 372.033" stroke="#FFA844" stroke-width="2.74237"/>
<path d="M309.582 370.685L309.207 374.394" stroke="#FFA844" stroke-width="2.74237"/>
<path d="M305.284 379.261L293.569 380.266" stroke="#FFA844" stroke-width="2.74237"/>
<path d="M307.933 377.725L310.488 383.599" stroke="#FFA844" stroke-width="2.74237"/>
<path d="M300.853 383.836L301.76 389.816" stroke="#FFA844" stroke-width="2.74237"/>
<path d="M296.105 393.949L296.667 383.602" stroke="#FFA844" stroke-width="2.74237"/>
<path d="M296.515 389.033L290.653 386.342" stroke="#FFA844" stroke-width="2.74237"/>
<path d="M291.678 396.729L291.228 390.208" stroke="#FFA844" stroke-width="2.74237"/>
<path d="M313.433 403.248L303.019 400.895" stroke="#FFA844" stroke-width="2.74237"/>
<path d="M312.456 396.757L312.772 389.955" stroke="#FFA844" stroke-width="2.74237"/>
<path d="M308.86 394.808L307.029 388.827" stroke="#FFA844" stroke-width="2.74237"/>
<path d="M308.86 394.808L303.785 396.808" stroke="#FFA844" stroke-width="2.74237"/>
<path d="M316.748 408.226L320.977 417.104" stroke="#FFA844" stroke-width="2.74237"/>
<path d="M295.452 406.663L291.543 407.502" stroke="#FFA844" stroke-width="2.74237"/>
<path d="M295.417 400.417L289.456 400.962" stroke="#FFA844" stroke-width="2.74237"/>
<path d="M330.889 387.069L330.586 394.843" stroke="#FFA844" stroke-width="2.74237"/>
<path d="M333.177 380.497L326.938 389.499" stroke="#FFA844" stroke-width="2.74237"/>
<path d="M349.304 378.18L343.161 393.715" stroke="#FFA844" stroke-width="2.74237"/>
<path d="M337.971 402.738L334.614 408.974" stroke="#FFA844" stroke-width="2.74237"/>
<path d="M303.226 414.568L299.025 411.008" stroke="#FFA844" stroke-width="2.74237"/>
<path d="M352.881 408.164L355.249 411.157" stroke="#FFA844" stroke-width="2.74237"/>
<path d="M346.347 397.443L348.677 400.158" stroke="#FFA844" stroke-width="2.74237"/>
<path d="M326.718 359.549L328.739 368.059" stroke="#FFA844" stroke-width="2.74237"/>
<path d="M336.955 390.205L332.741 391.221" stroke="#FFA844" stroke-width="2.74237"/>
<path d="M279.06 400.771L299.038 397.008" stroke="#FFA844" stroke-width="2.74237"/>
<path d="M329.021 439.119L325.406 406.952L339.208 390.724" stroke="#FFA844" stroke-width="2.74237"/>
<path d="M326.032 413.48L294.297 408.787" stroke="#FFA844" stroke-width="2.74237"/>
<path d="M283.71 389.958L323.31 406.356L303.426 379.776" stroke="#FFA844" stroke-width="2.74237"/>
<path d="M325.406 406.952L312.316 363.058" stroke="#FFA844" stroke-width="2.74237"/>
<path d="M325.406 406.952L332.572 369.214" stroke="#FFA844" stroke-width="2.74237"/>
<path d="M326.751 420.069L357.451 395.996" stroke="#FFA844" stroke-width="2.74237"/>
<path d="M350.033 401.858L351.472 386.499" stroke="#FFA844" stroke-width="2.74237"/>
<path d="M292.152 392.57L287.152 384.822" stroke="#FFA844" stroke-width="2.74237"/>
<path d="M319.852 387.046L327.689 361.65" stroke="#FFA844" stroke-width="2.74237"/>
<path d="M341.857 379.274L350.452 391.616" stroke="#FFA844" stroke-width="2.74237"/>
<path d="M338.157 411.21L351.177 408.071" stroke="#FFA844" stroke-width="2.74237"/>
<path d="M350.925 396.07L358.158 385.297" stroke="#FFA844" stroke-width="2.74237"/>
<path d="M332.786 399.48L342.91 401.69" stroke="#FFA844" stroke-width="2.74237"/>
<path d="M328.756 389.318L344.092 369.363" stroke="#FFA844" stroke-width="2.74237"/>
<path d="M290.258 418.951L309.275 410.961" stroke="#FFA844" stroke-width="2.74237"/>
<path d="M296.364 402.675L304.364 409.617" stroke="#FFA844" stroke-width="2.74237"/>
<path d="M301.63 386.619L312.571 391.478" stroke="#FFA844" stroke-width="2.74237"/>
<path d="M287.505 410.11L294.297 408.787L288.004 402.629" stroke="#FFA844" stroke-width="2.74237"/>
<path d="M299.295 380.436L304.982 387.839" stroke="#FFA844" stroke-width="2.74237"/>
<path d="M307.618 369.117L315.777 373.356" stroke="#FFA844" stroke-width="2.74237"/>
<path d="M323.453 361.04L325.16 368.36" stroke="#FFA844" stroke-width="2.74237"/>
<path d="M322.437 379.282L331.676 363.161" stroke="#FFA844" stroke-width="2.74237"/>
<path d="M323.982 385.349L327.661 394.97" stroke="#FFA844" stroke-width="2.74237"/>
<path d="M331.609 375.186L337.535 367.805" stroke="#FFA844" stroke-width="2.74237"/>
<path d="M333.899 367.413L334.973 370.927" stroke="#FFA844" stroke-width="2.74237"/>
<path d="M339.724 374.626L350.221 372.657" stroke="#FFA844" stroke-width="2.74237"/>
<path d="M336.85 373.834L335.482 380.236" stroke="#FFA844" stroke-width="2.74237"/>
<path d="M344.915 377.907L345.172 383.975" stroke="#FFA844" stroke-width="2.74237"/>
<path d="M351.472 386.499L348.948 376.567" stroke="#FFA844" stroke-width="2.74237"/>
<path d="M350.133 381.818L355.331 377.639" stroke="#FFA844" stroke-width="2.74237"/>
<path d="M356.315 388.031L355.509 381.558" stroke="#FFA844" stroke-width="2.74237"/>
<path d="M337.303 399.906L347 394.847" stroke="#FFA844" stroke-width="2.74237"/>
<path d="M336.077 393.579L334.47 387.035" stroke="#FFA844" stroke-width="2.74237"/>
<path d="M339.208 390.724L339.85 384.41" stroke="#FFA844" stroke-width="2.74237"/>
<path d="M339.208 390.724L344.535 391.325" stroke="#FFA844" stroke-width="2.74237"/>
<path d="M309.562 397.888L324.119 413.317" stroke="#FFA844" stroke-width="2.74237"/>
<path d="M354.535 398.713L358.504 398.492" stroke="#FFA844" stroke-width="2.74237"/>
<path d="M353.377 392.618L359.288 391.565" stroke="#FFA844" stroke-width="2.74237"/>
<path d="M316.268 389.037L318.92 399.919" stroke="#FFA844" stroke-width="2.74237"/>
<path d="M312.784 383.241L320.58 390.354" stroke="#FFA844" stroke-width="2.74237"/>
<path d="M296.628 385.268L305.579 398.772" stroke="#FFA844" stroke-width="2.74237"/>
<path d="M312.359 406.184L316.82 411.369" stroke="#FFA844" stroke-width="2.74237"/>
<path d="M348.47 408.48L351.883 403.895" stroke="#FFA844" stroke-width="2.74237"/>
<path d="M298.868 415.431L297.132 418.977" stroke="#FFA844" stroke-width="2.74237"/>
<path d="M290.14 415.147L292.876 417.169" stroke="#FFA844" stroke-width="2.74237"/>
<path d="M303.187 403.251L301.435 406.514" stroke="#FFA844" stroke-width="2.74237"/>
<path d="M281.524 396.449L286.171 398.817" stroke="#FFA844" stroke-width="2.74237"/>
<path d="M315.078 361.116L314.733 369.944" stroke="#FFA844" stroke-width="2.74237"/>
<path d="M312.685 391.221L313.282 386.196" stroke="#FFA844" stroke-width="2.74237"/>
<path d="M294.743 376.983L296.728 379.495" stroke="#FFA844" stroke-width="2.74237"/>
<path d="M366.241 64.2825L372.587 294.955L366.241 64.2825Z" fill="#FF9720"/>
<path d="M366.241 64.2825L372.587 294.955" stroke="black" stroke-width="2.26772"/>
<path d="M371.373 60.3421L387.492 319.767" stroke="black" stroke-width="2.26772"/>
<path d="M376.907 59.4646L407.108 353.862L376.907 59.4646Z" fill="#B51DEF"/>
<path d="M376.907 59.4646L407.108 353.862" stroke="black" stroke-width="2.26772"/>
<path d="M381.834 59.6937L428.922 390.997" stroke="black" stroke-width="2.26772"/>
<path d="M456.352 437.709L386.65 61.7888C386.856 61.0641 371.439 50.0969 362.874 69.1848L360.275 306.099L346.783 326.419L347.252 327.987L336.568 324.313L328.571 327.515L327.756 315.033L330.073 314.038V312.568L236.321 231.599L141.249 317.511L141.025 318.73L142.693 319.049L99.9181 437.082" stroke="black" stroke-width="5.27599"/>
<path d="M142.869 320.248L236.325 236.751L327.756 315.033" stroke="black" stroke-width="2.27677"/>
<path d="M135.419 374.973L146.086 369.465L135.569 402.286L125.451 405.764L135.419 374.973Z" stroke="black" stroke-width="3.02362"/>
<path d="M158.561 362.123L200.951 338.704L191.119 380.906L147.025 397.768L158.561 362.123Z" stroke="black" stroke-width="3.02362"/>
<path d="M113.671 437.075L118.532 423.674L126.42 421.136L121.714 437.365" stroke="black" stroke-width="3.02362"/>
<path d="M134.566 436.97L141.111 417.144L185.963 404.842L177.908 437.13" stroke="black" stroke-width="3.02362"/>
<path d="M236.325 236.751L195.969 437.227" stroke="black" stroke-width="3.51734"/>
<path d="M178.997 297.304L218.85 263.836L213.999 283.197L173.783 314.101L178.997 297.304Z" stroke="black" stroke-width="3.02362"/>
<path d="M239.411 279.497L242.77 260.109L277.539 286.837L276.419 305.332L239.411 279.497Z" stroke="black" stroke-width="3.02362"/>
<path d="M278.865 306.854L279.786 288.606L298.188 303.049L298.124 320.274L278.865 306.854Z" stroke="black" stroke-width="3.02362"/>
<path d="M300.403 304.922L322.864 322.122L323.566 337.837L300.376 321.92L300.403 304.922Z" stroke="black" stroke-width="3.02362"/>
<path d="M230.181 338.578L275.106 360.626L273.31 386.414L225.121 367.912L230.181 338.578Z" stroke="black" stroke-width="3.02362"/>
<path d="M142.701 327.56L171.186 303.657L164.608 323.903L150.923 334.352L142.06 359.218L128.642 365.838" stroke="black" stroke-width="3.02362" stroke-linecap="round" stroke-linejoin="round"/>
<path d="M142.701 327.56L128.642 365.838" stroke="black" stroke-width="3.02362" stroke-linecap="round"/>
<path d="M99 439.373L457.718 440" stroke="black" stroke-width="9.44882"/>
<g filter="url(#filter0_di_34_853)">
<path d="M584 278.5C584 428.998 455.506 551 297 551C138.494 551 10 428.998 10 278.5C10 128.002 138.494 6 297 6C455.506 6 584 128.002 584 278.5Z" fill="#FF9720" fill-opacity="0.2" shape-rendering="crispEdges"/>
</g>
<defs>
<filter id="filter0_di_34_853" x="0" y="0" width="594" height="565" filterUnits="userSpaceOnUse" color-interpolation-filters="sRGB">
<feFlood flood-opacity="0" result="BackgroundImageFix"/>
<feColorMatrix in="SourceAlpha" type="matrix" values="0 0 0 0 0 0 0 0 0 0 0 0 0 0 0 0 0 0 127 0" result="hardAlpha"/>
<feOffset dy="4"/>
<feGaussianBlur stdDeviation="5"/>
<feComposite in2="hardAlpha" operator="out"/>
<feColorMatrix type="matrix" values="0 0 0 0 0 0 0 0 0 0 0 0 0 0 0 0 0 0 0.25 0"/>
<feBlend mode="normal" in2="BackgroundImageFix" result="effect1_dropShadow_34_853"/>
<feBlend mode="normal" in="SourceGraphic" in2="effect1_dropShadow_34_853" result="shape"/>
<feColorMatrix in="SourceAlpha" type="matrix" values="0 0 0 0 0 0 0 0 0 0 0 0 0 0 0 0 0 0 127 0" result="hardAlpha"/>
<feOffset dx="6" dy="4"/>
<feGaussianBlur stdDeviation="15.5"/>
<feComposite in2="hardAlpha" operator="arithmetic" k2="-1" k3="1"/>
<feColorMatrix type="matrix" values="0 0 0 0 0 0 0 0 0 0 0 0 0 0 0 0 0 0 0.1 0"/>
<feBlend mode="normal" in2="shape" result="effect2_innerShadow_34_853"/>
</filter>
</defs>
</svg>
