<svg width="594" height="565" viewBox="0 0 594 565" fill="none" xmlns="http://www.w3.org/2000/svg">
<path d="M290.327 326.135L311.49 339.431L310.822 366.863L288.432 356.564L290.327 326.135Z" stroke="black" stroke-width="3.02362"/>
<path d="M379.574 437.769L380.3 420.792L405.181 397.168L423.836 389.986" stroke="#07B3B3" stroke-width="3.37638"/>
<path d="M368.423 347.203L369.59 328.596" stroke="#07B3B3" stroke-width="3.37638"/>
<path d="M374.339 342.93L378.453 331.049" stroke="#07B3B3" stroke-width="3.37638"/>
<path d="M387.388 346.34L385.406 328.23" stroke="#07B3B3" stroke-width="3.37638"/>
<path d="M381.411 342.554L376.854 331.211" stroke="#07B3B3" stroke-width="3.37638"/>
<path d="M379.162 422.646L363.137 381.083L343.983 364.225L331.885 359.97" stroke="#07B3B3" stroke-width="3.37638"/>
<path d="M331.362 367.214L343.983 364.225L334.664 352.701" stroke="#07B3B3" stroke-width="3.37638"/>
<path d="M391.236 370.828L379.162 422.646L373.599 374.091L368.042 361.945L353.261 357.014" stroke="#07B3B3" stroke-width="3.37638"/>
<path d="M373.599 374.091L368.423 347.203L361.917 334.527" stroke="#07B3B3" stroke-width="3.37638"/>
<path d="M379.161 422.646L384.464 374.267L380.805 355.354L374.339 342.93" stroke="#07B3B3" stroke-width="3.37638"/>
<path d="M368.042 361.945L352.006 339.136" stroke="#07B3B3" stroke-width="3.37638"/>
<path d="M384.586 400.139L394.203 396.806" stroke="#07B3B3" stroke-width="3.37638"/>
<path d="M387.652 386.9L401.918 377.616" stroke="#07B3B3" stroke-width="3.37638"/>
<path d="M399.938 358.131L391.236 370.828L387.667 356.77L394.241 341.332" stroke="#07B3B3" stroke-width="3.37638"/>
<path d="M387.667 356.77L384.162 339.666" stroke="#07B3B3" stroke-width="3.37638"/>
<path d="M352.673 400.265L338.063 414.804" stroke="#07B3B3" stroke-width="3.37638"/>
<path d="M353.972 372.94L346.713 378.367" stroke="#07B3B3" stroke-width="3.37638"/>
<path d="M344.4 344.463L353.261 357.014L342.071 353.809" stroke="#07B3B3" stroke-width="3.37638"/>
<path d="M373.599 374.091L375.514 352.482" stroke="#07B3B3" stroke-width="3.37638"/>
<path d="M363.137 381.083L360.091 366.235" stroke="#07B3B3" stroke-width="3.37638"/>
<path d="M395.64 365.296H401.929" stroke="#07B3B3" stroke-width="3.37638"/>
<path d="M391.559 348.618L400.097 346.182" stroke="#07B3B3" stroke-width="3.37638"/>
<path d="M374.339 342.93L372.267 334.478" stroke="#07B3B3" stroke-width="3.37638" stroke-linecap="square"/>
<path d="M363.589 409.351L354.884 386.586" stroke="#07B3B3" stroke-width="3.37638"/>
<path d="M344.264 397.281L334.218 379.891" stroke="#07B3B3" stroke-width="3.37638"/>
<path d="M379.161 422.646L400.387 398.769L403.456 385.646" stroke="#07B3B3" stroke-width="3.37638"/>
<path d="M400.387 398.769L405.115 393.78" stroke="#07B3B3" stroke-width="3.37638"/>
<path d="M399.592 358.892L409.466 357.37" stroke="#07B3B3" stroke-width="3.37638"/>
<path d="M399.938 358.131L405.323 337.884" stroke="#07B3B3" stroke-width="3.37638"/>
<path d="M405.521 370.371L401.918 377.616L407.153 377.209" stroke="#07B3B3" stroke-width="3.37638"/>
<path d="M389.035 413.023L401.307 411.87" stroke="#07B3B3" stroke-width="3.37638"/>
<path d="M405.115 393.78L415.273 390.571" stroke="#07B3B3" stroke-width="3.37638"/>
<path d="M405.115 393.78L410.284 387.752" stroke="#07B3B3" stroke-width="3.37638"/>
<path d="M396.295 404.057L409.194 399.667" stroke="#07B3B3" stroke-width="3.37638"/>
<path d="M375.905 393.563L368.794 384.026" stroke="#07B3B3" stroke-width="3.37638"/>
<path d="M374.896 383.034L380.242 373.995" stroke="#07B3B3" stroke-width="3.37638"/>
<path d="M331.477 387.925L339.021 388.789" stroke="#07B3B3" stroke-width="3.37638"/>
<path d="M339.743 406.435L348.014 404.571" stroke="#07B3B3" stroke-width="3.37638"/>
<path d="M344.539 416.559L344.311 409.362" stroke="#07B3B3" stroke-width="3.37638"/>
<path d="M380.805 355.354L381.329 347.726" stroke="#07B3B3" stroke-width="3.37638"/>
<path d="M374.219 363.509L376.842 360.722" stroke="#07B3B3" stroke-width="3.37638"/>
<path d="M382.991 366.011L386.611 363.53" stroke="#07B3B3" stroke-width="3.37638"/>
<path d="M386.182 349.831L388.451 335.119" stroke="#07B3B3" stroke-width="3.37638"/>
<path d="M348.281 398.281L346.215 385.792" stroke="#07B3B3" stroke-width="3.37638"/>
<path d="M360.363 345.689L360.381 351.152" stroke="#07B3B3" stroke-width="3.37638"/>
<path d="M402.791 349.036L407.911 345.191" stroke="#07B3B3" stroke-width="3.37638"/>
<path d="M407.653 359.141L405.521 370.371L410.754 367.879" stroke="#07B3B3" stroke-width="3.37638"/>
<path d="M410.284 387.752L412.352 379.841" stroke="#07B3B3" stroke-width="3.37638"/>
<path d="M410.284 387.752L413.82 385.983" stroke="#07B3B3" stroke-width="3.37638"/>
<path d="M399.651 407.28L396.486 411.265" stroke="#07B3B3" stroke-width="3.37638"/>
<path d="M339.112 352.768L339.145 358.229" stroke="#07B3B3" stroke-width="3.37638"/>
<path d="M343.95 358.765L343.983 364.225" stroke="#07B3B3" stroke-width="3.37638"/>
<path d="M380.301 420.792L394.086 379.108L412.046 361.366L420.348 357.725" stroke="#07B3B3" stroke-width="3.37638"/>
<path d="M420.73 362.823L412.046 361.366L417.256 353.796" stroke="#07B3B3" stroke-width="3.37638"/>
<path d="M366.156 370.938L380.3 420.792L383.544 372.964L388.426 360.725L402.651 354.93" stroke="#07B3B3" stroke-width="3.37638"/>
<path d="M383.544 372.964L387.388 346.34L393.174 333.52" stroke="#07B3B3" stroke-width="3.37638"/>
<path d="M380.301 420.792L372.931 373.853L375.653 355.124L381.412 342.554" stroke="#07B3B3" stroke-width="3.37638"/>
<path d="M388.426 360.725L403.07 337.371" stroke="#07B3B3" stroke-width="3.37638"/>
<path d="M373.982 399.151L364.43 396.527" stroke="#07B3B3" stroke-width="3.37638"/>
<path d="M370.385 386.411L356.022 378.278" stroke="#07B3B3" stroke-width="3.37638"/>
<path d="M357.076 359.101L366.156 370.938L369.009 356.961L361.141 340.916" stroke="#07B3B3" stroke-width="3.37638"/>
<path d="M369.009 356.961L373.634 336.704" stroke="#07B3B3" stroke-width="3.37638"/>
<path d="M405.192 397.156L415.398 398.227" stroke="#07B3B3" stroke-width="3.37638"/>
<path d="M402.676 370.544L410.017 375.37" stroke="#07B3B3" stroke-width="3.37638"/>
<path d="M410.746 342.077L402.651 354.93L413.445 351.059" stroke="#07B3B3" stroke-width="3.37638"/>
<path d="M383.544 372.964L380.695 351.968" stroke="#07B3B3" stroke-width="3.37638"/>
<path d="M394.086 379.108L396.392 364.394" stroke="#07B3B3" stroke-width="3.37638"/>
<path d="M361.602 365.822L355.454 366.236" stroke="#07B3B3" stroke-width="3.37638"/>
<path d="M363.889 346.384L358.933 343.205" stroke="#07B3B3" stroke-width="3.37638"/>
<path d="M381.411 342.554L383.055 334.155" stroke="#07B3B3" stroke-width="3.37638" stroke-linecap="square"/>
<path d="M394.921 406.769L402.402 383.943" stroke="#07B3B3" stroke-width="3.37638"/>
<path d="M413.266 393.696L422.3 376.034" stroke="#07B3B3" stroke-width="3.37638"/>
<path d="M380.3 420.792L358.474 398.853L354.881 386.229" stroke="#07B3B3" stroke-width="3.37638"/>
<path d="M358.474 398.853L353.627 394.288" stroke="#07B3B3" stroke-width="3.37638"/>
<path d="M357.076 359.101L350.898 339.666" stroke="#07B3B3" stroke-width="3.37638" stroke-linecap="square"/>
<path d="M352.173 371.434L356.022 378.278L350.886 378.226" stroke="#07B3B3" stroke-width="3.37638"/>
<path d="M389.538 412.03L407.283 410.556" stroke="#07B3B3" stroke-width="3.37638"/>
<path d="M353.627 394.288L343.553 391.822" stroke="#07B3B3" stroke-width="3.37638"/>
<path d="M353.627 394.289L348.302 388.738" stroke="#07B3B3" stroke-width="3.37638"/>
<path d="M362.713 403.752L352.358 400.816" stroke="#07B3B3" stroke-width="3.37638"/>
<path d="M382.169 392.149L388.689 382.358" stroke="#07B3B3" stroke-width="3.37638"/>
<path d="M382.68 381.791L377.046 373.309" stroke="#07B3B3" stroke-width="3.37638"/>
<path d="M425.342 383.707L418.006 385.049" stroke="#07B3B3" stroke-width="3.37638"/>
<path d="M375.653 355.124L374.796 347.703" stroke="#07B3B3" stroke-width="3.37638"/>
<path d="M380.553 362.724L377.863 360.173" stroke="#07B3B3" stroke-width="3.37638"/>
<path d="M373.997 365.686L370.347 363.499" stroke="#07B3B3" stroke-width="3.37638"/>
<path d="M370.148 350.081L367.264 335.849" stroke="#07B3B3" stroke-width="3.37638"/>
<path d="M409.384 394.939L410.839 382.595" stroke="#07B3B3" stroke-width="3.37638"/>
<path d="M396.038 342.042L396.266 347.383" stroke="#07B3B3" stroke-width="3.37638"/>
<path d="M397.117 351.476L397.346 356.817" stroke="#07B3B3" stroke-width="3.37638"/>
<path d="M353.877 350.399L348.698 346.978" stroke="#07B3B3" stroke-width="3.37638"/>
<path d="M349.581 360.598L352.173 371.434L346.945 369.343" stroke="#07B3B3" stroke-width="3.37638"/>
<path d="M348.302 388.738L345.923 381.141" stroke="#07B3B3" stroke-width="3.37638"/>
<path d="M348.302 388.738L344.766 387.242" stroke="#07B3B3" stroke-width="3.37638"/>
<path d="M400.912 411.766L404.186 415.452" stroke="#07B3B3" stroke-width="3.37638"/>
<path d="M380.3 420.792L379.574 437.769" stroke="#07B3B3" stroke-width="3.37638"/>
<path d="M424.472 379.163L402.38 381.107" stroke="#07B3B3" stroke-width="3.37638"/>
<path d="M378 408.621L410.862 393.214" stroke="#07B3B3" stroke-width="3.37638"/>
<path d="M420.165 366.665L377.303 400.887L392.954 363.943" stroke="#07B3B3" stroke-width="3.37638"/>
<path d="M377.303 400.887L382.091 346.094" stroke="#07B3B3" stroke-width="3.37638"/>
<path d="M377.303 400.887L361.775 359.576" stroke="#07B3B3" stroke-width="3.37638"/>
<path d="M378.61 416.454L340.84 398.326" stroke="#07B3B3" stroke-width="3.37638"/>
<path d="M349.976 402.758L345.232 385.481" stroke="#07B3B3" stroke-width="3.37638"/>
<path d="M410.724 373.816L414.886 364.997" stroke="#07B3B3" stroke-width="3.37638"/>
<path d="M379.067 376.159L365.402 349.308" stroke="#07B3B3" stroke-width="3.37638"/>
<path d="M353.975 374.114L347.389 391.067" stroke="#07B3B3" stroke-width="3.37638"/>
<path d="M364.594 409.816L350.055 410.291" stroke="#07B3B3" stroke-width="3.37638"/>
<path d="M347.816 396.357L337.851 386.198" stroke="#07B3B3" stroke-width="3.37638"/>
<path d="M367.872 394.584L357.537 400.322" stroke="#07B3B3" stroke-width="3.37638"/>
<path d="M370.046 381.584L349.522 363.375" stroke="#07B3B3" stroke-width="3.37638"/>
<path d="M417.293 403.676L395.343 400.438" stroke="#07B3B3" stroke-width="3.37638"/>
<path d="M407.38 386.808L400.299 397.341" stroke="#07B3B3" stroke-width="3.37638"/>
<path d="M397.766 370.615L386.472 378.298" stroke="#07B3B3" stroke-width="3.37638"/>
<path d="M418.382 392.603L410.862 393.214L416.286 384.124" stroke="#07B3B3" stroke-width="3.37638"/>
<path d="M399.607 362.057L395.089 372.393" stroke="#07B3B3" stroke-width="3.37638"/>
<path d="M389.394 351.307L381.579 358.768" stroke="#07B3B3" stroke-width="3.37638"/>
<path d="M369.792 347.269L369.501 356.257" stroke="#07B3B3" stroke-width="3.37638"/>
<path d="M374.687 368.009L361.467 352.307" stroke="#07B3B3" stroke-width="3.37638"/>
<path d="M372.379 369.814L370.466 382.079" stroke="#07B3B3" stroke-width="3.37638"/>
<path d="M364.051 366.168L352.41 359.853" stroke="#07B3B3" stroke-width="3.37638"/>
<path d="M359.984 357.915L359.573 362.31" stroke="#07B3B3" stroke-width="3.37638"/>
<path d="M355.279 368.076L343.673 369.108" stroke="#07B3B3" stroke-width="3.37638"/>
<path d="M358.179 366.257L360.975 373.216" stroke="#07B3B3" stroke-width="3.37638"/>
<path d="M350.43 373.497L351.423 380.583" stroke="#07B3B3" stroke-width="3.37638"/>
<path d="M345.232 385.481L345.848 373.22" stroke="#07B3B3" stroke-width="3.37638"/>
<path d="M345.682 379.655L339.265 376.467" stroke="#07B3B3" stroke-width="3.37638"/>
<path d="M340.387 388.774L339.894 381.047" stroke="#07B3B3" stroke-width="3.37638"/>
<path d="M363.144 396.498L351.746 393.71" stroke="#07B3B3" stroke-width="3.37638"/>
<path d="M363.129 388.808L363.475 380.747" stroke="#07B3B3" stroke-width="3.37638"/>
<path d="M359.193 386.498L357.189 379.411" stroke="#07B3B3" stroke-width="3.37638"/>
<path d="M359.193 386.498L353.638 388.868" stroke="#07B3B3" stroke-width="3.37638"/>
<path d="M367.827 402.397L372.456 412.916" stroke="#07B3B3" stroke-width="3.37638"/>
<path d="M344.518 400.545L340.239 401.539" stroke="#07B3B3" stroke-width="3.37638"/>
<path d="M344.479 393.144L337.955 393.789" stroke="#07B3B3" stroke-width="3.37638"/>
<path d="M383.304 377.328L382.974 386.539" stroke="#07B3B3" stroke-width="3.37638"/>
<path d="M385.809 369.541L378.981 380.207" stroke="#07B3B3" stroke-width="3.37638"/>
<path d="M403.461 366.795L396.737 385.203" stroke="#07B3B3" stroke-width="3.37638"/>
<path d="M396.595 391.64L387.382 403.283" stroke="#07B3B3" stroke-width="3.37638"/>
<path d="M353.027 409.911L348.429 405.693" stroke="#07B3B3" stroke-width="3.37638"/>
<path d="M407.376 402.323L409.968 405.87" stroke="#07B3B3" stroke-width="3.37638"/>
<path d="M416.624 400.384L414.129 403.58" stroke="#07B3B3" stroke-width="3.37638"/>
<path d="M400.224 389.62L402.774 392.837" stroke="#07B3B3" stroke-width="3.37638"/>
<path d="M418.049 376.087L413.588 380.283" stroke="#07B3B3" stroke-width="3.37638"/>
<path d="M396.957 388.93L391.305 388.012" stroke="#07B3B3" stroke-width="3.37638"/>
<path d="M378.739 344.721L380.952 354.804" stroke="#07B3B3" stroke-width="3.37638"/>
<path d="M389.945 381.044L385.332 382.248" stroke="#07B3B3" stroke-width="3.37638"/>
<path d="M345.739 349.92L345.968 355.261" stroke="#07B3B3" stroke-width="3.37638"/>
<path d="M356.043 339.455L356.272 344.797" stroke="#07B3B3" stroke-width="3.37638"/>
<path d="M380.703 439.91L379.161 422.646L352.673 400.265L333.309 394.225" stroke="#07B3B3" stroke-width="3.37638"/>
<path d="M379.161 422.646L380.703 439.91" stroke="#07B3B3" stroke-width="3.37638"/>
<path d="M380.17 439.16L377.303 400.887L359.193 386.498" stroke="#07B3B3" stroke-width="3.37638"/>
<path d="M414.081 371.486L419.27 371.613" stroke="#07B3B3" stroke-width="3.37638"/>
<path d="M379.417 389.617L359.234 391.258" stroke="#07B3B3" stroke-width="2.74237"/>
<path d="M376.529 377.933L337.37 406.815L351.669 375.635" stroke="#07B3B3" stroke-width="2.74237"/>
<path d="M371.978 410.305L351.924 407.573" stroke="#07B3B3" stroke-width="2.74237"/>
<path d="M372.972 400.96L366.102 401.476L371.057 393.804" stroke="#07B3B3" stroke-width="2.74237"/>
<path d="M371.366 406.567L369.087 409.265" stroke="#07B3B3" stroke-width="2.74237"/>
<path d="M376.191 386.062L372.116 389.603" stroke="#07B3B3" stroke-width="2.74237"/>
<path d="M337.042 414.479L367.066 401.476" stroke="#07B3B3" stroke-width="2.74237"/>
<path d="M339.024 440.253L336.406 407.952L319.86 395.808" stroke="#07B3B3" stroke-width="2.74237"/>
<path d="M336.406 407.952L340.78 361.708" stroke="#07B3B3" stroke-width="2.74237"/>
<path d="M336.406 407.952L322.219 373.087" stroke="#07B3B3" stroke-width="2.74237"/>
<path d="M337.599 421.09L303.092 405.79" stroke="#07B3B3" stroke-width="2.74237"/>
<path d="M311.439 409.531L307.105 394.949" stroke="#07B3B3" stroke-width="2.74237"/>
<path d="M366.059 385.105L368.716 372.098" stroke="#07B3B3" stroke-width="2.74237"/>
<path d="M338.017 387.082L325.532 364.421" stroke="#07B3B3" stroke-width="2.74237"/>
<path d="M315.093 385.356L309.075 399.664" stroke="#07B3B3" stroke-width="2.74237"/>
<path d="M324.794 415.488L311.51 415.889" stroke="#07B3B3" stroke-width="2.74237"/>
<path d="M309.465 404.129L300.361 395.554" stroke="#07B3B3" stroke-width="2.74237"/>
<path d="M326.825 403.769L317.383 408.612" stroke="#07B3B3" stroke-width="2.74237"/>
<path d="M329.775 391.66L311.023 376.293" stroke="#07B3B3" stroke-width="2.74237"/>
<path d="M363.885 396.07L357.415 404.959" stroke="#07B3B3" stroke-width="2.74237"/>
<path d="M355.981 382.403L345.663 388.887" stroke="#07B3B3" stroke-width="2.74237"/>
<path d="M356.783 375.181L352.655 383.904" stroke="#07B3B3" stroke-width="2.74237"/>
<path d="M347.452 366.108L340.312 372.405" stroke="#07B3B3" stroke-width="2.74237"/>
<path d="M329.543 362.701L329.277 370.286" stroke="#07B3B3" stroke-width="2.74237"/>
<path d="M334.016 380.204L321.937 366.952" stroke="#07B3B3" stroke-width="2.74237"/>
<path d="M333.668 386.526L331.921 396.877" stroke="#07B3B3" stroke-width="2.74237"/>
<path d="M324.298 378.65L317.114 373.033" stroke="#07B3B3" stroke-width="2.74237"/>
<path d="M320.582 371.685L320.207 375.394" stroke="#07B3B3" stroke-width="2.74237"/>
<path d="M316.284 380.261L304.569 381.266" stroke="#07B3B3" stroke-width="2.74237"/>
<path d="M318.933 378.725L321.488 384.599" stroke="#07B3B3" stroke-width="2.74237"/>
<path d="M311.853 384.836L312.76 390.816" stroke="#07B3B3" stroke-width="2.74237"/>
<path d="M307.105 394.949L307.667 384.602" stroke="#07B3B3" stroke-width="2.74237"/>
<path d="M307.515 390.033L301.653 387.342" stroke="#07B3B3" stroke-width="2.74237"/>
<path d="M302.678 397.729L302.228 391.208" stroke="#07B3B3" stroke-width="2.74237"/>
<path d="M324.433 404.248L314.019 401.895" stroke="#07B3B3" stroke-width="2.74237"/>
<path d="M323.456 397.757L323.772 390.955" stroke="#07B3B3" stroke-width="2.74237"/>
<path d="M319.86 395.808L318.029 389.827" stroke="#07B3B3" stroke-width="2.74237"/>
<path d="M319.86 395.808L314.785 397.808" stroke="#07B3B3" stroke-width="2.74237"/>
<path d="M327.748 409.226L331.977 418.104" stroke="#07B3B3" stroke-width="2.74237"/>
<path d="M306.452 407.663L302.543 408.502" stroke="#07B3B3" stroke-width="2.74237"/>
<path d="M306.417 401.417L300.456 401.962" stroke="#07B3B3" stroke-width="2.74237"/>
<path d="M341.889 388.069L341.586 395.843" stroke="#07B3B3" stroke-width="2.74237"/>
<path d="M344.177 381.497L337.938 390.499" stroke="#07B3B3" stroke-width="2.74237"/>
<path d="M360.304 379.18L354.161 394.715" stroke="#07B3B3" stroke-width="2.74237"/>
<path d="M348.971 403.738L345.614 409.974" stroke="#07B3B3" stroke-width="2.74237"/>
<path d="M314.226 415.568L310.025 412.008" stroke="#07B3B3" stroke-width="2.74237"/>
<path d="M363.881 409.164L366.249 412.157" stroke="#07B3B3" stroke-width="2.74237"/>
<path d="M357.347 398.443L359.677 401.158" stroke="#07B3B3" stroke-width="2.74237"/>
<path d="M337.718 360.549L339.739 369.059" stroke="#07B3B3" stroke-width="2.74237"/>
<path d="M347.955 391.205L343.741 392.221" stroke="#07B3B3" stroke-width="2.74237"/>
<path d="M290.06 401.771L310.038 398.008" stroke="#07B3B3" stroke-width="2.74237"/>
<path d="M340.021 440.119L336.406 407.952L350.208 391.724" stroke="#07B3B3" stroke-width="2.74237"/>
<path d="M337.031 414.48L305.297 409.787" stroke="#07B3B3" stroke-width="2.74237"/>
<path d="M294.71 390.958L334.31 407.356L314.426 380.776" stroke="#07B3B3" stroke-width="2.74237"/>
<path d="M336.406 407.952L323.316 364.058" stroke="#07B3B3" stroke-width="2.74237"/>
<path d="M336.406 407.952L343.572 370.214" stroke="#07B3B3" stroke-width="2.74237"/>
<path d="M337.751 421.069L368.451 396.996" stroke="#07B3B3" stroke-width="2.74237"/>
<path d="M361.033 402.858L362.472 387.499" stroke="#07B3B3" stroke-width="2.74237"/>
<path d="M303.152 393.57L298.152 385.822" stroke="#07B3B3" stroke-width="2.74237"/>
<path d="M330.852 388.046L338.689 362.65" stroke="#07B3B3" stroke-width="2.74237"/>
<path d="M352.857 380.274L361.452 392.616" stroke="#07B3B3" stroke-width="2.74237"/>
<path d="M349.157 412.21L362.177 409.071" stroke="#07B3B3" stroke-width="2.74237"/>
<path d="M361.925 397.07L369.158 386.297" stroke="#07B3B3" stroke-width="2.74237"/>
<path d="M343.786 400.48L353.91 402.69" stroke="#07B3B3" stroke-width="2.74237"/>
<path d="M339.756 390.318L355.092 370.363" stroke="#07B3B3" stroke-width="2.74237"/>
<path d="M301.258 419.951L320.275 411.961" stroke="#07B3B3" stroke-width="2.74237"/>
<path d="M307.364 403.675L315.364 410.617" stroke="#07B3B3" stroke-width="2.74237"/>
<path d="M312.63 387.619L323.571 392.478" stroke="#07B3B3" stroke-width="2.74237"/>
<path d="M298.505 411.11L305.297 409.787L299.004 403.629" stroke="#07B3B3" stroke-width="2.74237"/>
<path d="M310.295 381.436L315.983 388.839" stroke="#07B3B3" stroke-width="2.74237"/>
<path d="M318.618 370.117L326.777 374.356" stroke="#07B3B3" stroke-width="2.74237"/>
<path d="M334.453 362.04L336.16 369.36" stroke="#07B3B3" stroke-width="2.74237"/>
<path d="M333.437 380.282L342.676 364.161" stroke="#07B3B3" stroke-width="2.74237"/>
<path d="M334.982 386.349L338.661 395.97" stroke="#07B3B3" stroke-width="2.74237"/>
<path d="M342.609 376.186L348.535 368.805" stroke="#07B3B3" stroke-width="2.74237"/>
<path d="M344.899 368.413L345.973 371.927" stroke="#07B3B3" stroke-width="2.74237"/>
<path d="M350.724 375.626L361.221 373.657" stroke="#07B3B3" stroke-width="2.74237"/>
<path d="M347.85 374.834L346.482 381.236" stroke="#07B3B3" stroke-width="2.74237"/>
<path d="M355.915 378.907L356.172 384.975" stroke="#07B3B3" stroke-width="2.74237"/>
<path d="M362.472 387.499L359.948 377.567" stroke="#07B3B3" stroke-width="2.74237"/>
<path d="M361.133 382.818L366.331 378.639" stroke="#07B3B3" stroke-width="2.74237"/>
<path d="M367.315 389.031L366.509 382.558" stroke="#07B3B3" stroke-width="2.74237"/>
<path d="M348.303 400.906L358 395.847" stroke="#07B3B3" stroke-width="2.74237"/>
<path d="M347.077 394.579L345.47 388.035" stroke="#07B3B3" stroke-width="2.74237"/>
<path d="M350.208 391.724L350.85 385.41" stroke="#07B3B3" stroke-width="2.74237"/>
<path d="M350.208 391.724L355.535 392.325" stroke="#07B3B3" stroke-width="2.74237"/>
<path d="M320.562 398.888L335.119 414.317" stroke="#07B3B3" stroke-width="2.74237"/>
<path d="M365.535 399.713L369.504 399.492" stroke="#07B3B3" stroke-width="2.74237"/>
<path d="M364.377 393.618L370.288 392.565" stroke="#07B3B3" stroke-width="2.74237"/>
<path d="M327.268 390.037L329.92 400.919" stroke="#07B3B3" stroke-width="2.74237"/>
<path d="M323.784 384.241L331.58 391.354" stroke="#07B3B3" stroke-width="2.74237"/>
<path d="M307.628 386.268L316.579 399.772" stroke="#07B3B3" stroke-width="2.74237"/>
<path d="M323.359 407.184L327.82 412.369" stroke="#07B3B3" stroke-width="2.74237"/>
<path d="M359.47 409.48L362.883 404.895" stroke="#07B3B3" stroke-width="2.74237"/>
<path d="M309.868 416.431L308.132 419.977" stroke="#07B3B3" stroke-width="2.74237"/>
<path d="M301.14 416.147L303.876 418.169" stroke="#07B3B3" stroke-width="2.74237"/>
<path d="M314.187 404.251L312.435 407.514" stroke="#07B3B3" stroke-width="2.74237"/>
<path d="M292.524 397.449L297.171 399.817" stroke="#07B3B3" stroke-width="2.74237"/>
<path d="M326.078 362.116L325.733 370.944" stroke="#07B3B3" stroke-width="2.74237"/>
<path d="M323.685 392.221L324.282 387.196" stroke="#07B3B3" stroke-width="2.74237"/>
<path d="M305.743 377.983L307.728 380.495" stroke="#07B3B3" stroke-width="2.74237"/>
<path d="M377.241 65.2825L383.587 295.955L377.241 65.2825Z" fill="#0BEF00"/>
<path d="M377.241 65.2825L383.587 295.955" stroke="black" stroke-width="2.26772"/>
<path d="M382.373 61.3421L398.492 320.767" stroke="black" stroke-width="2.26772"/>
<path d="M387.907 60.4646L418.108 354.862L387.907 60.4646Z" fill="#B51DEF"/>
<path d="M387.907 60.4646L418.108 354.862" stroke="black" stroke-width="2.26772"/>
<path d="M392.834 60.6937L439.922 391.997" stroke="black" stroke-width="2.26772"/>
<path d="M467.352 438.709L397.65 62.7888C397.856 62.0641 382.439 51.0969 373.874 70.1848L371.275 307.099L357.783 327.419L358.252 328.987L347.568 325.313L339.571 328.515L338.756 316.033L341.073 315.038V313.568L247.321 232.599L152.249 318.511L152.025 319.73L153.693 320.049L110.918 438.082" stroke="black" stroke-width="5.27599"/>
<path d="M153.869 321.248L247.325 237.751L338.756 316.033" stroke="black" stroke-width="2.27677"/>
<path d="M146.419 375.973L157.086 370.465L146.569 403.286L136.451 406.764L146.419 375.973Z" stroke="black" stroke-width="3.02362"/>
<path d="M169.561 363.123L211.951 339.704L202.119 381.906L158.025 398.768L169.561 363.123Z" stroke="black" stroke-width="3.02362"/>
<path d="M124.671 438.075L129.532 424.674L137.42 422.136L132.714 438.365" stroke="black" stroke-width="3.02362"/>
<path d="M145.566 437.97L152.111 418.144L196.963 405.842L188.908 438.13" stroke="black" stroke-width="3.02362"/>
<path d="M247.325 237.751L206.969 438.227" stroke="black" stroke-width="3.51734"/>
<path d="M189.997 298.304L229.85 264.836L224.999 284.197L184.783 315.101L189.997 298.304Z" stroke="black" stroke-width="3.02362"/>
<path d="M250.411 280.497L253.77 261.109L288.539 287.837L287.419 306.332L250.411 280.497Z" stroke="black" stroke-width="3.02362"/>
<path d="M289.865 307.854L290.786 289.606L309.188 304.049L309.124 321.274L289.865 307.854Z" stroke="black" stroke-width="3.02362"/>
<path d="M311.403 305.922L333.864 323.122L334.566 338.837L311.376 322.92L311.403 305.922Z" stroke="black" stroke-width="3.02362"/>
<path d="M241.181 339.578L286.106 361.626L284.31 387.414L236.121 368.912L241.181 339.578Z" stroke="black" stroke-width="3.02362"/>
<path d="M153.701 328.56L182.186 304.657L175.608 324.903L161.923 335.352L153.06 360.218L139.642 366.838" stroke="black" stroke-width="3.02362" stroke-linecap="round" stroke-linejoin="round"/>
<path d="M153.701 328.56L139.642 366.838" stroke="black" stroke-width="3.02362" stroke-linecap="round"/>
<path d="M110 440.373L468.718 441" stroke="black" stroke-width="9.44882"/>
<g filter="url(#filter0_di_34_287)">
<path d="M584 278.5C584 428.998 455.506 551 297 551C138.494 551 10 428.998 10 278.5C10 128.002 138.494 6 297 6C455.506 6 584 128.002 584 278.5Z" fill="#2E1FFF" fill-opacity="0.35" shape-rendering="crispEdges"/>
</g>
<defs>
<filter id="filter0_di_34_287" x="0" y="0" width="594" height="565" filterUnits="userSpaceOnUse" color-interpolation-filters="sRGB">
<feFlood flood-opacity="0" result="BackgroundImageFix"/>
<feColorMatrix in="SourceAlpha" type="matrix" values="0 0 0 0 0 0 0 0 0 0 0 0 0 0 0 0 0 0 127 0" result="hardAlpha"/>
<feOffset dy="4"/>
<feGaussianBlur stdDeviation="5"/>
<feComposite in2="hardAlpha" operator="out"/>
<feColorMatrix type="matrix" values="0 0 0 0 0 0 0 0 0 0 0 0 0 0 0 0 0 0 0.25 0"/>
<feBlend mode="normal" in2="BackgroundImageFix" result="effect1_dropShadow_34_287"/>
<feBlend mode="normal" in="SourceGraphic" in2="effect1_dropShadow_34_287" result="shape"/>
<feColorMatrix in="SourceAlpha" type="matrix" values="0 0 0 0 0 0 0 0 0 0 0 0 0 0 0 0 0 0 127 0" result="hardAlpha"/>
<feOffset dx="6" dy="4"/>
<feGaussianBlur stdDeviation="15.5"/>
<feComposite in2="hardAlpha" operator="arithmetic" k2="-1" k3="1"/>
<feColorMatrix type="matrix" values="0 0 0 0 0 0 0 0 0 0 0 0 0 0 0 0 0 0 0.1 0"/>
<feBlend mode="normal" in2="shape" result="effect2_innerShadow_34_287"/>
</filter>
</defs>
</svg>
