<svg width="594" height="565" viewBox="0 0 594 565" fill="none" xmlns="http://www.w3.org/2000/svg">
<path d="M288.327 326.135L309.49 339.431L308.822 366.863L286.432 356.564L288.327 326.135Z" stroke="black" stroke-width="3.02362"/>
<path d="M377.574 437.769L378.3 420.792L403.181 397.168L421.836 389.986" stroke="#63FF44" stroke-width="3.37638"/>
<path d="M366.423 347.203L367.59 328.596" stroke="#63FF44" stroke-width="3.37638"/>
<path d="M372.339 342.93L376.453 331.049" stroke="#63FF44" stroke-width="3.37638"/>
<path d="M385.388 346.34L383.406 328.23" stroke="#63FF44" stroke-width="3.37638"/>
<path d="M379.411 342.554L374.854 331.211" stroke="#63FF44" stroke-width="3.37638"/>
<path d="M377.161 422.646L361.137 381.083L341.983 364.225L329.885 359.97" stroke="#63FF44" stroke-width="3.37638"/>
<path d="M329.362 367.214L341.983 364.225L332.664 352.701" stroke="#63FF44" stroke-width="3.37638"/>
<path d="M389.236 370.828L377.161 422.646L371.599 374.091L366.042 361.945L351.261 357.014" stroke="#63FF44" stroke-width="3.37638"/>
<path d="M371.599 374.091L366.423 347.203L359.917 334.527" stroke="#63FF44" stroke-width="3.37638"/>
<path d="M377.161 422.646L382.464 374.267L378.805 355.354L372.339 342.93" stroke="#63FF44" stroke-width="3.37638"/>
<path d="M366.042 361.945L350.006 339.136" stroke="#63FF44" stroke-width="3.37638"/>
<path d="M382.586 400.139L392.203 396.806" stroke="#63FF44" stroke-width="3.37638"/>
<path d="M385.652 386.9L399.918 377.616" stroke="#63FF44" stroke-width="3.37638"/>
<path d="M397.938 358.131L389.236 370.828L385.667 356.77L392.241 341.332" stroke="#63FF44" stroke-width="3.37638"/>
<path d="M385.667 356.77L382.162 339.666" stroke="#63FF44" stroke-width="3.37638"/>
<path d="M350.673 400.265L336.063 414.804" stroke="#63FF44" stroke-width="3.37638"/>
<path d="M351.972 372.94L344.713 378.367" stroke="#63FF44" stroke-width="3.37638"/>
<path d="M342.4 344.463L351.261 357.014L340.071 353.809" stroke="#63FF44" stroke-width="3.37638"/>
<path d="M371.599 374.091L373.514 352.482" stroke="#63FF44" stroke-width="3.37638"/>
<path d="M361.137 381.083L358.091 366.235" stroke="#63FF44" stroke-width="3.37638"/>
<path d="M393.64 365.296H399.929" stroke="#63FF44" stroke-width="3.37638"/>
<path d="M389.559 348.618L398.097 346.182" stroke="#63FF44" stroke-width="3.37638"/>
<path d="M372.339 342.93L370.267 334.478" stroke="#63FF44" stroke-width="3.37638" stroke-linecap="square"/>
<path d="M361.589 409.351L352.884 386.586" stroke="#63FF44" stroke-width="3.37638"/>
<path d="M342.264 397.281L332.218 379.891" stroke="#63FF44" stroke-width="3.37638"/>
<path d="M377.162 422.646L398.387 398.769L401.456 385.646" stroke="#63FF44" stroke-width="3.37638"/>
<path d="M398.387 398.769L403.115 393.78" stroke="#63FF44" stroke-width="3.37638"/>
<path d="M397.592 358.892L407.466 357.37" stroke="#63FF44" stroke-width="3.37638"/>
<path d="M397.938 358.131L403.323 337.884" stroke="#63FF44" stroke-width="3.37638"/>
<path d="M403.521 370.371L399.918 377.616L405.153 377.209" stroke="#63FF44" stroke-width="3.37638"/>
<path d="M387.035 413.023L399.307 411.87" stroke="#63FF44" stroke-width="3.37638"/>
<path d="M403.115 393.78L413.273 390.571" stroke="#63FF44" stroke-width="3.37638"/>
<path d="M403.115 393.78L408.284 387.752" stroke="#63FF44" stroke-width="3.37638"/>
<path d="M394.295 404.057L407.194 399.667" stroke="#63FF44" stroke-width="3.37638"/>
<path d="M373.905 393.563L366.794 384.026" stroke="#63FF44" stroke-width="3.37638"/>
<path d="M372.895 383.034L378.242 373.995" stroke="#63FF44" stroke-width="3.37638"/>
<path d="M329.477 387.925L337.021 388.789" stroke="#63FF44" stroke-width="3.37638"/>
<path d="M337.743 406.435L346.014 404.571" stroke="#63FF44" stroke-width="3.37638"/>
<path d="M342.539 416.559L342.311 409.362" stroke="#63FF44" stroke-width="3.37638"/>
<path d="M378.805 355.354L379.329 347.726" stroke="#63FF44" stroke-width="3.37638"/>
<path d="M372.219 363.509L374.842 360.722" stroke="#63FF44" stroke-width="3.37638"/>
<path d="M380.991 366.011L384.611 363.53" stroke="#63FF44" stroke-width="3.37638"/>
<path d="M384.182 349.831L386.451 335.119" stroke="#63FF44" stroke-width="3.37638"/>
<path d="M346.281 398.281L344.215 385.792" stroke="#63FF44" stroke-width="3.37638"/>
<path d="M358.363 345.689L358.381 351.152" stroke="#63FF44" stroke-width="3.37638"/>
<path d="M400.791 349.036L405.911 345.191" stroke="#63FF44" stroke-width="3.37638"/>
<path d="M405.653 359.141L403.521 370.371L408.754 367.879" stroke="#63FF44" stroke-width="3.37638"/>
<path d="M408.284 387.752L410.352 379.841" stroke="#63FF44" stroke-width="3.37638"/>
<path d="M408.284 387.752L411.82 385.983" stroke="#63FF44" stroke-width="3.37638"/>
<path d="M397.651 407.28L394.486 411.265" stroke="#63FF44" stroke-width="3.37638"/>
<path d="M337.112 352.768L337.145 358.229" stroke="#63FF44" stroke-width="3.37638"/>
<path d="M341.95 358.765L341.983 364.225" stroke="#63FF44" stroke-width="3.37638"/>
<path d="M378.301 420.792L392.086 379.108L410.046 361.366L418.348 357.725" stroke="#63FF44" stroke-width="3.37638"/>
<path d="M418.73 362.823L410.046 361.366L415.256 353.797" stroke="#63FF44" stroke-width="3.37638"/>
<path d="M364.156 370.938L378.3 420.792L381.544 372.964L386.426 360.725L400.651 354.93" stroke="#63FF44" stroke-width="3.37638"/>
<path d="M381.544 372.964L385.388 346.34L391.174 333.52" stroke="#63FF44" stroke-width="3.37638"/>
<path d="M378.301 420.792L370.931 373.853L373.653 355.124L379.412 342.554" stroke="#63FF44" stroke-width="3.37638"/>
<path d="M386.426 360.725L401.07 337.371" stroke="#63FF44" stroke-width="3.37638"/>
<path d="M371.982 399.151L362.43 396.527" stroke="#63FF44" stroke-width="3.37638"/>
<path d="M368.385 386.411L354.022 378.278" stroke="#63FF44" stroke-width="3.37638"/>
<path d="M355.076 359.101L364.156 370.938L367.009 356.961L359.141 340.916" stroke="#63FF44" stroke-width="3.37638"/>
<path d="M367.009 356.961L371.634 336.704" stroke="#63FF44" stroke-width="3.37638"/>
<path d="M403.192 397.156L413.398 398.227" stroke="#63FF44" stroke-width="3.37638"/>
<path d="M400.676 370.544L408.017 375.37" stroke="#63FF44" stroke-width="3.37638"/>
<path d="M408.746 342.077L400.651 354.93L411.445 351.059" stroke="#63FF44" stroke-width="3.37638"/>
<path d="M381.544 372.964L378.695 351.968" stroke="#63FF44" stroke-width="3.37638"/>
<path d="M392.086 379.108L394.392 364.394" stroke="#63FF44" stroke-width="3.37638"/>
<path d="M359.602 365.822L353.454 366.237" stroke="#63FF44" stroke-width="3.37638"/>
<path d="M361.889 346.384L356.933 343.205" stroke="#63FF44" stroke-width="3.37638"/>
<path d="M379.411 342.554L381.055 334.155" stroke="#63FF44" stroke-width="3.37638" stroke-linecap="square"/>
<path d="M392.921 406.769L400.402 383.943" stroke="#63FF44" stroke-width="3.37638"/>
<path d="M411.266 393.696L420.3 376.034" stroke="#63FF44" stroke-width="3.37638"/>
<path d="M378.3 420.792L356.474 398.853L352.881 386.229" stroke="#63FF44" stroke-width="3.37638"/>
<path d="M356.474 398.853L351.627 394.288" stroke="#63FF44" stroke-width="3.37638"/>
<path d="M355.076 359.101L348.898 339.666" stroke="#63FF44" stroke-width="3.37638" stroke-linecap="square"/>
<path d="M350.173 371.434L354.022 378.278L348.886 378.226" stroke="#63FF44" stroke-width="3.37638"/>
<path d="M387.538 412.03L405.283 410.556" stroke="#63FF44" stroke-width="3.37638"/>
<path d="M351.627 394.288L341.553 391.822" stroke="#63FF44" stroke-width="3.37638"/>
<path d="M351.627 394.289L346.302 388.738" stroke="#63FF44" stroke-width="3.37638"/>
<path d="M360.713 403.752L350.358 400.816" stroke="#63FF44" stroke-width="3.37638"/>
<path d="M380.169 392.149L386.689 382.358" stroke="#63FF44" stroke-width="3.37638"/>
<path d="M380.68 381.791L375.046 373.309" stroke="#63FF44" stroke-width="3.37638"/>
<path d="M423.342 383.707L416.006 385.049" stroke="#63FF44" stroke-width="3.37638"/>
<path d="M373.653 355.124L372.796 347.703" stroke="#63FF44" stroke-width="3.37638"/>
<path d="M378.553 362.725L375.863 360.173" stroke="#63FF44" stroke-width="3.37638"/>
<path d="M371.997 365.686L368.347 363.499" stroke="#63FF44" stroke-width="3.37638"/>
<path d="M368.148 350.081L365.264 335.849" stroke="#63FF44" stroke-width="3.37638"/>
<path d="M407.384 394.939L408.839 382.595" stroke="#63FF44" stroke-width="3.37638"/>
<path d="M394.038 342.042L394.266 347.383" stroke="#63FF44" stroke-width="3.37638"/>
<path d="M395.117 351.476L395.346 356.817" stroke="#63FF44" stroke-width="3.37638"/>
<path d="M351.877 350.399L346.698 346.978" stroke="#63FF44" stroke-width="3.37638"/>
<path d="M347.581 360.598L350.173 371.434L344.945 369.343" stroke="#63FF44" stroke-width="3.37638"/>
<path d="M346.302 388.738L343.923 381.141" stroke="#63FF44" stroke-width="3.37638"/>
<path d="M346.302 388.738L342.766 387.242" stroke="#63FF44" stroke-width="3.37638"/>
<path d="M398.912 411.766L402.186 415.452" stroke="#63FF44" stroke-width="3.37638"/>
<path d="M378.3 420.792L377.574 437.769" stroke="#63FF44" stroke-width="3.37638"/>
<path d="M422.472 379.163L400.38 381.107" stroke="#63FF44" stroke-width="3.37638"/>
<path d="M376 408.621L408.862 393.214" stroke="#63FF44" stroke-width="3.37638"/>
<path d="M418.165 366.665L375.303 400.887L390.954 363.943" stroke="#63FF44" stroke-width="3.37638"/>
<path d="M375.303 400.887L380.091 346.094" stroke="#63FF44" stroke-width="3.37638"/>
<path d="M375.303 400.887L359.775 359.576" stroke="#63FF44" stroke-width="3.37638"/>
<path d="M376.61 416.454L338.84 398.326" stroke="#63FF44" stroke-width="3.37638"/>
<path d="M347.976 402.758L343.232 385.481" stroke="#63FF44" stroke-width="3.37638"/>
<path d="M408.724 373.816L412.886 364.997" stroke="#63FF44" stroke-width="3.37638"/>
<path d="M377.067 376.159L363.402 349.308" stroke="#63FF44" stroke-width="3.37638"/>
<path d="M351.975 374.114L345.389 391.067" stroke="#63FF44" stroke-width="3.37638"/>
<path d="M362.594 409.816L348.055 410.291" stroke="#63FF44" stroke-width="3.37638"/>
<path d="M345.816 396.357L335.851 386.198" stroke="#63FF44" stroke-width="3.37638"/>
<path d="M365.872 394.584L355.537 400.322" stroke="#63FF44" stroke-width="3.37638"/>
<path d="M368.046 381.584L347.522 363.375" stroke="#63FF44" stroke-width="3.37638"/>
<path d="M415.293 403.676L393.343 400.438" stroke="#63FF44" stroke-width="3.37638"/>
<path d="M405.38 386.808L398.299 397.341" stroke="#63FF44" stroke-width="3.37638"/>
<path d="M395.766 370.615L384.472 378.298" stroke="#63FF44" stroke-width="3.37638"/>
<path d="M416.382 392.603L408.862 393.214L414.286 384.124" stroke="#63FF44" stroke-width="3.37638"/>
<path d="M397.607 362.057L393.089 372.393" stroke="#63FF44" stroke-width="3.37638"/>
<path d="M387.394 351.307L379.579 358.768" stroke="#63FF44" stroke-width="3.37638"/>
<path d="M367.792 347.269L367.501 356.257" stroke="#63FF44" stroke-width="3.37638"/>
<path d="M372.687 368.009L359.467 352.307" stroke="#63FF44" stroke-width="3.37638"/>
<path d="M370.379 369.814L368.466 382.079" stroke="#63FF44" stroke-width="3.37638"/>
<path d="M362.051 366.168L350.41 359.853" stroke="#63FF44" stroke-width="3.37638"/>
<path d="M357.984 357.915L357.573 362.31" stroke="#63FF44" stroke-width="3.37638"/>
<path d="M353.279 368.076L341.673 369.108" stroke="#63FF44" stroke-width="3.37638"/>
<path d="M356.179 366.257L358.975 373.216" stroke="#63FF44" stroke-width="3.37638"/>
<path d="M348.43 373.497L349.423 380.583" stroke="#63FF44" stroke-width="3.37638"/>
<path d="M343.232 385.481L343.848 373.22" stroke="#63FF44" stroke-width="3.37638"/>
<path d="M343.682 379.655L337.265 376.467" stroke="#63FF44" stroke-width="3.37638"/>
<path d="M338.387 388.774L337.894 381.047" stroke="#63FF44" stroke-width="3.37638"/>
<path d="M361.144 396.498L349.746 393.71" stroke="#63FF44" stroke-width="3.37638"/>
<path d="M361.129 388.808L361.475 380.747" stroke="#63FF44" stroke-width="3.37638"/>
<path d="M357.193 386.497L355.189 379.411" stroke="#63FF44" stroke-width="3.37638"/>
<path d="M357.193 386.497L351.638 388.868" stroke="#63FF44" stroke-width="3.37638"/>
<path d="M365.827 402.397L370.456 412.916" stroke="#63FF44" stroke-width="3.37638"/>
<path d="M342.518 400.545L338.239 401.539" stroke="#63FF44" stroke-width="3.37638"/>
<path d="M342.479 393.144L335.955 393.789" stroke="#63FF44" stroke-width="3.37638"/>
<path d="M381.304 377.328L380.974 386.539" stroke="#63FF44" stroke-width="3.37638"/>
<path d="M383.809 369.541L376.981 380.207" stroke="#63FF44" stroke-width="3.37638"/>
<path d="M401.461 366.795L394.737 385.203" stroke="#63FF44" stroke-width="3.37638"/>
<path d="M394.595 391.64L385.382 403.283" stroke="#63FF44" stroke-width="3.37638"/>
<path d="M351.027 409.911L346.429 405.693" stroke="#63FF44" stroke-width="3.37638"/>
<path d="M405.376 402.323L407.968 405.87" stroke="#63FF44" stroke-width="3.37638"/>
<path d="M414.624 400.384L412.129 403.58" stroke="#63FF44" stroke-width="3.37638"/>
<path d="M398.224 389.62L400.774 392.837" stroke="#63FF44" stroke-width="3.37638"/>
<path d="M416.049 376.087L411.588 380.283" stroke="#63FF44" stroke-width="3.37638"/>
<path d="M394.957 388.93L389.305 388.012" stroke="#63FF44" stroke-width="3.37638"/>
<path d="M376.739 344.721L378.952 354.804" stroke="#63FF44" stroke-width="3.37638"/>
<path d="M387.945 381.044L383.332 382.248" stroke="#63FF44" stroke-width="3.37638"/>
<path d="M343.739 349.92L343.968 355.261" stroke="#63FF44" stroke-width="3.37638"/>
<path d="M354.043 339.455L354.272 344.797" stroke="#63FF44" stroke-width="3.37638"/>
<path d="M378.703 439.91L377.161 422.646L350.673 400.265L331.309 394.225" stroke="#63FF44" stroke-width="3.37638"/>
<path d="M377.162 422.646L378.703 439.91" stroke="#63FF44" stroke-width="3.37638"/>
<path d="M378.17 439.16L375.303 400.887L357.193 386.497" stroke="#63FF44" stroke-width="3.37638"/>
<path d="M412.081 371.486L417.27 371.613" stroke="#63FF44" stroke-width="3.37638"/>
<path d="M377.417 389.617L357.234 391.258" stroke="#63FF44" stroke-width="2.74237"/>
<path d="M374.529 377.933L335.37 406.815L349.669 375.635" stroke="#63FF44" stroke-width="2.74237"/>
<path d="M369.978 410.305L349.924 407.573" stroke="#63FF44" stroke-width="2.74237"/>
<path d="M370.972 400.96L364.102 401.476L369.057 393.804" stroke="#63FF44" stroke-width="2.74237"/>
<path d="M369.366 406.567L367.087 409.265" stroke="#63FF44" stroke-width="2.74237"/>
<path d="M374.191 386.062L370.116 389.603" stroke="#63FF44" stroke-width="2.74237"/>
<path d="M335.042 414.479L365.066 401.476" stroke="#63FF44" stroke-width="2.74237"/>
<path d="M337.024 440.253L334.406 407.952L317.86 395.808" stroke="#63FF44" stroke-width="2.74237"/>
<path d="M334.406 407.952L338.78 361.708" stroke="#63FF44" stroke-width="2.74237"/>
<path d="M334.406 407.952L320.219 373.087" stroke="#63FF44" stroke-width="2.74237"/>
<path d="M335.599 421.09L301.092 405.79" stroke="#63FF44" stroke-width="2.74237"/>
<path d="M309.439 409.531L305.105 394.949" stroke="#63FF44" stroke-width="2.74237"/>
<path d="M364.059 385.105L366.716 372.098" stroke="#63FF44" stroke-width="2.74237"/>
<path d="M336.017 387.082L323.532 364.421" stroke="#63FF44" stroke-width="2.74237"/>
<path d="M313.093 385.356L307.075 399.664" stroke="#63FF44" stroke-width="2.74237"/>
<path d="M322.794 415.488L309.51 415.889" stroke="#63FF44" stroke-width="2.74237"/>
<path d="M307.465 404.129L298.361 395.554" stroke="#63FF44" stroke-width="2.74237"/>
<path d="M324.825 403.769L315.383 408.613" stroke="#63FF44" stroke-width="2.74237"/>
<path d="M327.775 391.661L309.023 376.293" stroke="#63FF44" stroke-width="2.74237"/>
<path d="M361.885 396.07L355.415 404.959" stroke="#63FF44" stroke-width="2.74237"/>
<path d="M353.981 382.403L343.663 388.887" stroke="#63FF44" stroke-width="2.74237"/>
<path d="M354.783 375.181L350.655 383.904" stroke="#63FF44" stroke-width="2.74237"/>
<path d="M345.452 366.108L338.312 372.405" stroke="#63FF44" stroke-width="2.74237"/>
<path d="M327.543 362.701L327.277 370.286" stroke="#63FF44" stroke-width="2.74237"/>
<path d="M332.016 380.204L319.937 366.952" stroke="#63FF44" stroke-width="2.74237"/>
<path d="M331.668 386.526L329.921 396.877" stroke="#63FF44" stroke-width="2.74237"/>
<path d="M322.298 378.65L315.114 373.033" stroke="#63FF44" stroke-width="2.74237"/>
<path d="M318.582 371.685L318.207 375.394" stroke="#63FF44" stroke-width="2.74237"/>
<path d="M314.284 380.261L302.569 381.267" stroke="#63FF44" stroke-width="2.74237"/>
<path d="M316.933 378.725L319.488 384.599" stroke="#63FF44" stroke-width="2.74237"/>
<path d="M309.853 384.836L310.76 390.816" stroke="#63FF44" stroke-width="2.74237"/>
<path d="M305.105 394.95L305.667 384.602" stroke="#63FF44" stroke-width="2.74237"/>
<path d="M305.515 390.033L299.653 387.342" stroke="#63FF44" stroke-width="2.74237"/>
<path d="M300.678 397.729L300.228 391.208" stroke="#63FF44" stroke-width="2.74237"/>
<path d="M322.433 404.248L312.019 401.895" stroke="#63FF44" stroke-width="2.74237"/>
<path d="M321.456 397.757L321.772 390.955" stroke="#63FF44" stroke-width="2.74237"/>
<path d="M317.86 395.808L316.029 389.827" stroke="#63FF44" stroke-width="2.74237"/>
<path d="M317.86 395.808L312.785 397.808" stroke="#63FF44" stroke-width="2.74237"/>
<path d="M325.748 409.226L329.977 418.104" stroke="#63FF44" stroke-width="2.74237"/>
<path d="M304.452 407.664L300.543 408.502" stroke="#63FF44" stroke-width="2.74237"/>
<path d="M304.417 401.417L298.456 401.962" stroke="#63FF44" stroke-width="2.74237"/>
<path d="M339.889 388.069L339.586 395.843" stroke="#63FF44" stroke-width="2.74237"/>
<path d="M342.177 381.497L335.938 390.499" stroke="#63FF44" stroke-width="2.74237"/>
<path d="M358.304 379.18L352.161 394.715" stroke="#63FF44" stroke-width="2.74237"/>
<path d="M346.971 403.738L343.614 409.974" stroke="#63FF44" stroke-width="2.74237"/>
<path d="M312.226 415.568L308.025 412.008" stroke="#63FF44" stroke-width="2.74237"/>
<path d="M361.881 409.164L364.249 412.157" stroke="#63FF44" stroke-width="2.74237"/>
<path d="M355.347 398.443L357.677 401.158" stroke="#63FF44" stroke-width="2.74237"/>
<path d="M335.718 360.549L337.739 369.059" stroke="#63FF44" stroke-width="2.74237"/>
<path d="M345.955 391.205L341.741 392.221" stroke="#63FF44" stroke-width="2.74237"/>
<path d="M288.06 401.771L308.038 398.008" stroke="#63FF44" stroke-width="2.74237"/>
<path d="M338.021 440.119L334.406 407.952L348.208 391.724" stroke="#63FF44" stroke-width="2.74237"/>
<path d="M335.032 414.48L303.297 409.787" stroke="#63FF44" stroke-width="2.74237"/>
<path d="M292.71 390.958L332.31 407.356L312.426 380.776" stroke="#63FF44" stroke-width="2.74237"/>
<path d="M334.406 407.952L321.316 364.058" stroke="#63FF44" stroke-width="2.74237"/>
<path d="M334.406 407.952L341.572 370.214" stroke="#63FF44" stroke-width="2.74237"/>
<path d="M335.751 421.069L366.451 396.996" stroke="#63FF44" stroke-width="2.74237"/>
<path d="M359.033 402.858L360.472 387.499" stroke="#63FF44" stroke-width="2.74237"/>
<path d="M301.152 393.57L296.152 385.822" stroke="#63FF44" stroke-width="2.74237"/>
<path d="M328.852 388.046L336.689 362.65" stroke="#63FF44" stroke-width="2.74237"/>
<path d="M350.857 380.274L359.452 392.616" stroke="#63FF44" stroke-width="2.74237"/>
<path d="M347.157 412.21L360.177 409.071" stroke="#63FF44" stroke-width="2.74237"/>
<path d="M359.925 397.07L367.158 386.297" stroke="#63FF44" stroke-width="2.74237"/>
<path d="M341.786 400.48L351.91 402.69" stroke="#63FF44" stroke-width="2.74237"/>
<path d="M337.756 390.318L353.092 370.363" stroke="#63FF44" stroke-width="2.74237"/>
<path d="M299.258 419.951L318.275 411.961" stroke="#63FF44" stroke-width="2.74237"/>
<path d="M305.364 403.675L313.364 410.617" stroke="#63FF44" stroke-width="2.74237"/>
<path d="M310.63 387.619L321.571 392.478" stroke="#63FF44" stroke-width="2.74237"/>
<path d="M296.505 411.11L303.297 409.787L297.004 403.629" stroke="#63FF44" stroke-width="2.74237"/>
<path d="M308.295 381.436L313.982 388.839" stroke="#63FF44" stroke-width="2.74237"/>
<path d="M316.618 370.117L324.777 374.356" stroke="#63FF44" stroke-width="2.74237"/>
<path d="M332.453 362.04L334.16 369.36" stroke="#63FF44" stroke-width="2.74237"/>
<path d="M331.437 380.282L340.676 364.161" stroke="#63FF44" stroke-width="2.74237"/>
<path d="M332.982 386.349L336.661 395.97" stroke="#63FF44" stroke-width="2.74237"/>
<path d="M340.609 376.186L346.535 368.805" stroke="#63FF44" stroke-width="2.74237"/>
<path d="M342.899 368.413L343.973 371.927" stroke="#63FF44" stroke-width="2.74237"/>
<path d="M348.724 375.626L359.221 373.657" stroke="#63FF44" stroke-width="2.74237"/>
<path d="M345.85 374.834L344.482 381.236" stroke="#63FF44" stroke-width="2.74237"/>
<path d="M353.915 378.907L354.172 384.975" stroke="#63FF44" stroke-width="2.74237"/>
<path d="M360.472 387.499L357.949 377.567" stroke="#63FF44" stroke-width="2.74237"/>
<path d="M359.133 382.818L364.331 378.639" stroke="#63FF44" stroke-width="2.74237"/>
<path d="M365.315 389.031L364.509 382.558" stroke="#63FF44" stroke-width="2.74237"/>
<path d="M346.303 400.906L356 395.847" stroke="#63FF44" stroke-width="2.74237"/>
<path d="M345.077 394.579L343.47 388.035" stroke="#63FF44" stroke-width="2.74237"/>
<path d="M348.208 391.724L348.85 385.41" stroke="#63FF44" stroke-width="2.74237"/>
<path d="M348.208 391.724L353.535 392.325" stroke="#63FF44" stroke-width="2.74237"/>
<path d="M318.562 398.888L333.119 414.317" stroke="#63FF44" stroke-width="2.74237"/>
<path d="M363.535 399.713L367.504 399.492" stroke="#63FF44" stroke-width="2.74237"/>
<path d="M362.377 393.618L368.288 392.565" stroke="#63FF44" stroke-width="2.74237"/>
<path d="M325.268 390.037L327.92 400.919" stroke="#63FF44" stroke-width="2.74237"/>
<path d="M321.784 384.241L329.58 391.354" stroke="#63FF44" stroke-width="2.74237"/>
<path d="M305.628 386.268L314.579 399.772" stroke="#63FF44" stroke-width="2.74237"/>
<path d="M321.359 407.184L325.82 412.369" stroke="#63FF44" stroke-width="2.74237"/>
<path d="M357.47 409.48L360.883 404.895" stroke="#63FF44" stroke-width="2.74237"/>
<path d="M307.868 416.431L306.132 419.977" stroke="#63FF44" stroke-width="2.74237"/>
<path d="M299.14 416.147L301.876 418.169" stroke="#63FF44" stroke-width="2.74237"/>
<path d="M312.187 404.251L310.435 407.514" stroke="#63FF44" stroke-width="2.74237"/>
<path d="M290.524 397.45L295.171 399.817" stroke="#63FF44" stroke-width="2.74237"/>
<path d="M324.078 362.116L323.733 370.944" stroke="#63FF44" stroke-width="2.74237"/>
<path d="M321.685 392.221L322.282 387.196" stroke="#63FF44" stroke-width="2.74237"/>
<path d="M303.743 377.983L305.728 380.495" stroke="#63FF44" stroke-width="2.74237"/>
<path d="M375.241 65.2825L381.587 295.955L375.241 65.2825Z" fill="#0BEF00"/>
<path d="M375.241 65.2825L381.587 295.955" stroke="black" stroke-width="2.26772"/>
<path d="M380.373 61.3421L396.492 320.767" stroke="black" stroke-width="2.26772"/>
<path d="M385.907 60.4646L416.108 354.862L385.907 60.4646Z" fill="#B51DEF"/>
<path d="M385.907 60.4646L416.108 354.862" stroke="black" stroke-width="2.26772"/>
<path d="M390.834 60.6937L437.922 391.997" stroke="black" stroke-width="2.26772"/>
<path d="M465.352 438.709L395.65 62.7888C395.856 62.0641 380.439 51.0969 371.874 70.1848L369.275 307.099L355.783 327.419L356.252 328.987L345.568 325.313L337.571 328.515L336.756 316.033L339.073 315.038V313.568L245.321 232.599L150.249 318.511L150.025 319.73L151.693 320.049L108.918 438.082" stroke="black" stroke-width="5.27599"/>
<path d="M151.869 321.248L245.325 237.751L336.756 316.033" stroke="black" stroke-width="2.27677"/>
<path d="M144.419 375.973L155.086 370.465L144.569 403.286L134.451 406.764L144.419 375.973Z" stroke="black" stroke-width="3.02362"/>
<path d="M167.561 363.123L209.951 339.704L200.119 381.906L156.025 398.768L167.561 363.123Z" stroke="black" stroke-width="3.02362"/>
<path d="M122.671 438.075L127.532 424.674L135.42 422.136L130.714 438.365" stroke="black" stroke-width="3.02362"/>
<path d="M143.566 437.97L150.111 418.144L194.963 405.842L186.908 438.13" stroke="black" stroke-width="3.02362"/>
<path d="M245.325 237.751L204.969 438.227" stroke="black" stroke-width="3.51734"/>
<path d="M187.997 298.304L227.85 264.836L222.999 284.197L182.783 315.101L187.997 298.304Z" stroke="black" stroke-width="3.02362"/>
<path d="M248.411 280.497L251.77 261.109L286.539 287.837L285.419 306.332L248.411 280.497Z" stroke="black" stroke-width="3.02362"/>
<path d="M287.865 307.854L288.786 289.606L307.188 304.049L307.124 321.274L287.865 307.854Z" stroke="black" stroke-width="3.02362"/>
<path d="M309.403 305.922L331.864 323.122L332.566 338.837L309.376 322.92L309.403 305.922Z" stroke="black" stroke-width="3.02362"/>
<path d="M239.181 339.578L284.106 361.626L282.31 387.414L234.121 368.912L239.181 339.578Z" stroke="black" stroke-width="3.02362"/>
<path d="M151.701 328.56L180.186 304.657L173.608 324.903L159.923 335.352L151.06 360.218L137.642 366.838" stroke="black" stroke-width="3.02362" stroke-linecap="round" stroke-linejoin="round"/>
<path d="M151.701 328.56L137.642 366.838" stroke="black" stroke-width="3.02362" stroke-linecap="round"/>
<path d="M108 440.373L466.718 441" stroke="black" stroke-width="9.44882"/>
<g filter="url(#filter0_di_34_286)">
<path d="M584 278.5C584 428.998 455.506 551 297 551C138.494 551 10 428.998 10 278.5C10 128.002 138.494 6 297 6C455.506 6 584 128.002 584 278.5Z" fill="#D4F3C3" fill-opacity="0.38" shape-rendering="crispEdges"/>
</g>
<defs>
<filter id="filter0_di_34_286" x="0" y="0" width="594" height="565" filterUnits="userSpaceOnUse" color-interpolation-filters="sRGB">
<feFlood flood-opacity="0" result="BackgroundImageFix"/>
<feColorMatrix in="SourceAlpha" type="matrix" values="0 0 0 0 0 0 0 0 0 0 0 0 0 0 0 0 0 0 127 0" result="hardAlpha"/>
<feOffset dy="4"/>
<feGaussianBlur stdDeviation="5"/>
<feComposite in2="hardAlpha" operator="out"/>
<feColorMatrix type="matrix" values="0 0 0 0 0 0 0 0 0 0 0 0 0 0 0 0 0 0 0.25 0"/>
<feBlend mode="normal" in2="BackgroundImageFix" result="effect1_dropShadow_34_286"/>
<feBlend mode="normal" in="SourceGraphic" in2="effect1_dropShadow_34_286" result="shape"/>
<feColorMatrix in="SourceAlpha" type="matrix" values="0 0 0 0 0 0 0 0 0 0 0 0 0 0 0 0 0 0 127 0" result="hardAlpha"/>
<feOffset dx="6" dy="4"/>
<feGaussianBlur stdDeviation="15.5"/>
<feComposite in2="hardAlpha" operator="arithmetic" k2="-1" k3="1"/>
<feColorMatrix type="matrix" values="0 0 0 0 0 0 0 0 0 0 0 0 0 0 0 0 0 0 0.1 0"/>
<feBlend mode="normal" in2="shape" result="effect2_innerShadow_34_286"/>
</filter>
</defs>
</svg>
